<svg xmlns="http://www.w3.org/2000/svg" xmlns:xlink="http://www.w3.org/1999/xlink" width="1440" zoomAndPan="magnify" viewBox="0 0 1080 1079.999946" height="1440" preserveAspectRatio="xMidYMid meet" version="1.0"><path fill="#00247d" d="M 0.519531 270.25 C 180.34375 222.300781 360.171875 222.300781 540 270.25 C 719.828125 318.195312 899.65625 318.195312 1079.480469 270.25 L 1079.480469 809.65625 C 899.65625 857.601562 719.828125 857.601562 540 809.65625 C 360.171875 761.707031 180.34375 761.707031 0.519531 809.65625 Z M 0.519531 270.25 " fill-opacity="1" fill-rule="nonzero"/><path fill="#ffffff" d="M 0.519531 270.25 C 40.730469 259.527344 80.9375 251.203125 121.148438 245.277344 C 260.769531 294.496094 400.386719 372.621094 540.003906 479.648438 C 679.621094 447.078125 819.238281 385.601562 958.855469 295.226562 C 999.066406 289.300781 1039.277344 280.976562 1079.488281 270.253906 L 1079.488281 330.5625 C 939.871094 437.585938 800.253906 515.710938 660.636719 564.9375 C 800.253906 655.3125 939.871094 716.789062 1079.488281 749.359375 L 1079.488281 809.667969 C 1039.277344 820.386719 999.066406 828.710938 958.855469 834.636719 C 819.238281 785.417969 679.621094 707.292969 540.003906 600.265625 C 400.386719 632.839844 260.769531 694.3125 121.148438 784.6875 C 80.9375 790.617188 40.730469 798.9375 0.519531 809.660156 L 0.519531 749.351562 C 140.136719 642.328125 279.753906 564.203125 419.371094 514.980469 C 279.753906 424.601562 140.136719 363.128906 0.519531 330.554688 Z M 0.519531 270.25 " fill-opacity="1" fill-rule="nonzero"/><path fill="#cf142b" d="M 0.519531 270.25 C 180.34375 312.203125 360.171875 402.105469 540 539.953125 C 513.191406 532.804688 486.386719 526.722656 459.578125 521.707031 C 306.558594 416.570312 153.539062 346.152344 0.515625 310.457031 Z M 540 499.75 C 693.019531 464.050781 846.042969 393.632812 999.0625 288.5 C 1025.871094 283.480469 1052.675781 277.398438 1079.484375 270.25 C 899.65625 408.101562 719.828125 498 540 539.957031 Z M 1079.480469 809.65625 C 899.65625 767.703125 719.828125 677.800781 540 539.953125 C 566.808594 547.101562 593.613281 553.183594 620.421875 558.199219 C 773.441406 663.332031 926.460938 733.75 1079.484375 769.449219 Z M 540 580.15625 C 386.980469 615.855469 233.957031 686.273438 80.9375 791.40625 C 54.128906 796.421875 27.324219 802.503906 0.515625 809.652344 C 180.34375 671.804688 360.171875 581.902344 540 539.949219 Z M 540 580.15625 " fill-opacity="1" fill-rule="nonzero"/><path fill="#ffffff" d="M 450.085938 250.269531 C 480.058594 255.597656 510.027344 262.257812 540 270.25 C 569.972656 278.238281 599.941406 284.898438 629.914062 290.226562 L 629.914062 470.027344 C 779.769531 496.664062 929.625 490.007812 1079.480469 450.050781 L 1079.480469 629.851562 C 929.625 669.808594 779.769531 676.46875 629.914062 649.832031 L 629.914062 829.632812 C 599.941406 824.304688 569.972656 817.648438 540 809.65625 C 510.027344 801.664062 480.058594 795.003906 450.085938 789.679688 L 450.085938 609.875 C 300.230469 583.238281 150.375 589.898438 0.519531 629.851562 L 0.519531 450.050781 C 150.375 410.09375 300.230469 403.4375 450.085938 430.074219 Z M 450.085938 250.269531 " fill-opacity="1" fill-rule="nonzero"/><path fill="#cf142b" d="M 486.050781 257.300781 C 504.035156 261.136719 522.015625 265.453125 540 270.25 C 557.984375 275.042969 575.964844 279.359375 593.949219 283.195312 L 593.949219 498.957031 C 755.792969 533.480469 917.636719 529.164062 1079.480469 486.011719 L 1079.480469 593.894531 C 917.636719 637.046875 755.792969 641.359375 593.949219 606.839844 L 593.949219 822.601562 C 575.964844 818.765625 557.984375 814.449219 540 809.65625 C 522.015625 804.863281 504.035156 800.546875 486.050781 796.710938 L 486.050781 580.945312 C 324.207031 546.425781 162.363281 550.742188 0.519531 593.894531 L 0.519531 486.011719 C 162.363281 442.859375 324.207031 438.542969 486.050781 473.066406 Z M 486.050781 257.300781 " fill-opacity="1" fill-rule="nonzero"/></svg>